<?xml version="1.0" encoding="UTF-8" standalone="no"?>
<svg
   xmlns:dc="http://purl.org/dc/elements/1.1/"
   xmlns:cc="http://creativecommons.org/ns#"
   xmlns:rdf="http://www.w3.org/1999/02/22-rdf-syntax-ns#"
   xmlns:svg="http://www.w3.org/2000/svg"
   xmlns="http://www.w3.org/2000/svg"
   id="svg8"
   version="1.1"
   viewBox="0 0 471.55905 240.89755"
   height="240.89755mm"
   width="471.55905mm">
  <defs
     id="defs2">
    <clipPath
       id="clip1">
      <rect
         x="0"
         y="0"
         width="1585"
         height="683"
         id="rect826" />
    </clipPath>
    <g
       id="surface9813"
       clip-path="url(#clip1)">
      <path
         style="fill:#513823;fill-opacity:1;fill-rule:nonzero;stroke:none"
         d="m 297.89062,494.87109 h 7.58594 c 0,-27.57031 14.16406,-38.94922 38.44141,-38.94922 18.21094,0 26.55859,4.30079 26.55859,4.30079 v 25.79687 c 0,0 -8.09375,-0.76172 -16.1875,-0.76172 -8.59765,0 -11.38281,2.53125 -11.38281,9.61328 h 12.89844 v 27.0586 h -12.89844 v 37.43359 h 12.89844 v 27.05859 h -57.91407 v -27.05859 h 7.33204 v -37.43359 h -7.33204 z m 0,0"
         id="path829" />
      <path
         style="fill:#513823;fill-opacity:1;fill-rule:nonzero;stroke:none"
         d="m 406.64062,588.69922 c -30.34765,0 -49.82421,-15.9336 -49.82421,-48.05078 0,-32.1211 19.22265,-48.05469 49.82421,-48.05469 30.35157,0 49.82422,15.93359 49.82422,48.05469 0,32.11718 -19.22265,48.05078 -49.82422,48.05078 z m 9.61329,-39.70703 v -16.4375 c 0,-7.33594 -3.28907,-10.625 -9.61329,-10.625 -6.32031,0 -9.60937,3.03515 -9.60937,10.625 v 16.4375 c 0,7.33593 3.28906,10.62109 9.60937,10.62109 6.32422,-0.25 9.61329,-3.28516 9.61329,-10.62109 z m 0,0"
         id="path831" />
      <path
         style="fill:#513823;fill-opacity:1;fill-rule:nonzero;stroke:none"
         d="m 508.81641,588.69922 c -30.34766,0 -49.82422,-15.9336 -49.82422,-48.05078 0,-32.1211 19.22265,-48.05469 49.82422,-48.05469 30.35156,0 49.82421,15.93359 49.82421,48.05469 0,32.11718 -19.47265,48.05078 -49.82421,48.05078 z m 9.61328,-39.70703 v -16.4375 c 0,-7.33594 -3.28907,-10.625 -9.61328,-10.625 -6.32032,0 -9.60938,3.03515 -9.60938,10.625 v 16.4375 c 0,7.33593 3.28906,10.62109 9.60938,10.62109 6.32421,-0.25 9.61328,-3.28516 9.61328,-10.62109 z m 0,0"
         id="path833" />
      <path
         style="fill:#513823;fill-opacity:1;fill-rule:nonzero;stroke:none"
         d="M 621.10937,485.25391 H 611.5 v -27.0586 h 47.54687 v 101.16406 h 7.33204 v 27.0586 h -45.01563 v -11.125 c -4.04687,5.30859 -12.89844,13.40234 -25.54297,13.40234 -22.76562,0 -33.64062,-17.70312 -33.64062,-48.05469 0,-30.34765 11.1289,-48.05078 33.64062,-48.05078 12.39063,0 21.4961,8.34766 25.54297,13.40235 v -20.73828 z m -19.22265,63.48046 c 0,7.33594 3.28906,10.625 9.61328,10.625 6.32031,0 9.60937,-3.03515 9.60937,-10.625 v -16.4375 c 0,-7.33593 -3.28906,-10.62109 -9.60937,-10.62109 -6.32422,0 -9.61328,3.03516 -9.61328,10.62109 z m 0,0"
         id="path835" />
      <path
         style="fill:#63ae23;fill-opacity:1;fill-rule:nonzero;stroke:none"
         d="m 673.46094,560.375 c 0,0 20.48828,3.03516 32.8789,3.03516 9.61328,0 11.88672,-1.76954 11.88672,-4.30079 0,-3.03515 -2.27344,-4.04687 -12.64453,-5.30859 -22.76172,-3.03516 -36.67187,-12.89844 -36.67187,-31.36328 0,-17.19531 12.14062,-30.09375 41.98437,-30.09375 25.28906,0 38.1875,5.05859 38.1875,5.05859 v 22.25391 c 0,0 -17.70312,-2.27734 -31.35937,-2.27734 -8.85157,0 -12.64844,1.26562 -12.64844,4.04687 0,2.53125 2.27734,3.79688 12.39453,4.80859 25.28906,2.52735 37.17969,11.88672 37.17969,30.85157 0,19.47656 -12.89844,31.61718 -41.48047,31.61718 -25.03516,0 -39.70703,-5.05859 -39.70703,-5.05859 z m 0,0"
         id="path837" />
      <path
         style="fill:#63ae23;fill-opacity:1;fill-rule:nonzero;stroke:none"
         d="m 815.59766,559.36328 h 7.33593 v -27.0625 c 0,-7.33594 -3.28906,-10.62109 -9.61328,-10.62109 -6.32031,0 -9.60937,3.03515 -9.60937,10.62109 v 27.0625 h 7.33593 v 27.05859 h -52.35546 v -27.05859 h 7.33593 v -74.10547 h -7.33593 v -27.05859 h 45.01953 v 47.79687 c 5.3125,-5.30859 12.89843,-13.40234 27.82031,-13.40234 17.95703,0 29.08594,12.39062 29.08594,39.70703 v 27.0625 h 7.33203 v 27.05859 h -52.35156 z m 0,0"
         id="path839" />
      <path
         style="fill:#63ae23;fill-opacity:1;fill-rule:nonzero;stroke:none"
         d="m 930.16797,575.29687 c -4.04688,5.3086 -12.89844,13.40235 -28.83203,13.40235 -18.71485,0 -30.35157,-9.10547 -30.35157,-25.79688 0,-20.48437 18.21094,-31.61328 59.1836,-31.61328 0,-6.32422 -2.78516,-9.60937 -15.17578,-9.60937 -12.89844,0 -27.31641,2.27343 -38.19141,4.80468 v -28.32812 c 0,0 19.47656,-5.81641 45.52734,-5.81641 35.15235,0 45.52344,13.40625 45.52344,39.70703 v 27.31641 h 7.33203 v 27.05859 h -45.01562 z m 0,-27.3164 c -11.63672,0 -18.96875,1.01172 -18.96875,6.32422 0,3.79297 2.78125,5.30859 9.10547,5.30859 6.32031,0 10.11328,-3.53906 10.11328,-10.62109 v -1.01172 z m 0,0"
         id="path841" />
      <path
         style="fill:#63ae23;fill-opacity:1;fill-rule:nonzero;stroke:none"
         d="m 979.73828,494.87109 h 45.01562 v 10.875 l 1.7734,0.50391 c 3.0313,-6.32031 9.6094,-13.65625 20.9883,-13.65625 8.6016,0 13.4063,2.27734 13.4063,2.27734 v 28.57813 c 0,0 -7.336,-1.51953 -15.4297,-1.51953 -14.4141,0 -20.7383,5.82031 -20.7383,21.5 v 15.93359 h 14.9219 v 27.05859 h -60.19143 v -27.05859 h 7.33594 v -37.43359 h -7.33594 v -27.0586 z m 0,0"
         id="path843" />
      <path
         style="fill:#63ae23;fill-opacity:1;fill-rule:nonzero;stroke:none"
         d="m 1110.7461,559.36328 h 7.332 v 27.05859 h -52.3515 v -27.05859 h 7.3359 v -37.43359 h -7.3359 v -27.0586 h 45.0195 z m -35.6602,-100.91406 h 30.3477 v 27.57031 h -30.3477 z m 0,0"
         id="path845" />
      <path
         style="fill:#63ae23;fill-opacity:1;fill-rule:nonzero;stroke:none"
         d="m 1179.0313,559.36328 h 7.332 v -27.0625 c 0,-7.33594 -3.2852,-10.62109 -9.6094,-10.62109 -6.3203,0 -9.6094,3.03515 -9.6094,10.62109 v 27.0625 h 7.3321 v 27.05859 h -52.3516 v -27.05859 h 7.3359 v -37.43359 h -7.3359 v -27.0586 h 45.0195 v 11.125 c 5.3086,-5.30859 12.8985,-13.40234 27.8203,-13.40234 17.9571,0 29.0821,12.39062 29.0821,39.70703 v 27.0625 h 7.3359 v 27.05859 h -52.3515 z m 0,0"
         id="path847" />
      <path
         style="fill:#63ae23;fill-opacity:1;fill-rule:nonzero;stroke:none"
         d="m 1292.3359,494.87109 h 45.0157 v 27.0586 h -7.0821 v 57.91797 c 0,32.37109 -16.6914,45.52343 -47.5468,45.52343 -23.7735,0 -39.4532,-5.3125 -39.4532,-5.3125 V 593 c 9.1055,1.76953 20.4844,3.03516 31.3633,3.03516 11.8867,0 17.7031,-2.53125 17.7031,-13.66016 v -7.07813 c -4.0468,5.3086 -12.8984,13.40235 -25.5468,13.40235 -22.7618,0 -33.6368,-17.70313 -33.6368,-48.05078 0,-30.35157 11.129,-48.05469 33.6368,-48.05469 12.3945,0 21.5,8.34766 25.5468,13.40234 z m -18.9687,54.1211 c 0,7.33593 3.2851,10.62109 9.6094,10.62109 6.3242,0 9.6093,-3.03516 9.6093,-10.62109 v -16.4375 c 0,-7.33594 -3.2851,-10.625 -9.6093,-10.625 -6.3243,0 -9.6094,3.03515 -9.6094,10.625 z m 0,0"
         id="path849" />
      <path
         style="fill:#63ae23;fill-opacity:1;fill-rule:nonzero;stroke:none"
         d="m 239.65234,275.90625 11.2461,11.25 -172.132815,194.96484 1.632813,52.32422 195.894532,-221.89453 11.41406,11.41016 v -48.05469 z m 0,0"
         id="path851" />
      <path
         style="fill:#63ae23;fill-opacity:1;fill-rule:nonzero;stroke:none"
         d="M 34.050781,657.54687 209.58984,482.00781 207.85156,534.44531 59.398438,682.89453 Z m 0,0"
         id="path853" />
      <path
         style="fill:#513823;fill-opacity:1;fill-rule:nonzero;stroke:none"
         d="m 124.39453,398.00391 c 0,0 2.27735,18.21093 -25.035155,41.98437 -27.570313,24.02734 -19.222656,49.0625 -19.980469,58.92969 -0.507812,9.86328 7.082032,178.80469 7.082032,178.80469 0,0 6.320312,11.63671 10.621093,0 l 4.550779,-165.90625 c 0,0 9.35938,-16.44141 12.89844,0.5039 l 7.08203,164.14063 c 0,0 7.08203,9.35547 10.62109,0.5039 l 6.32422,-166.41406 c 0,0 1.76953,-6.32422 5.3125,-6.32422 h 0.50391 c 3.54297,0 5.3125,6.32422 5.3125,6.32422 l 6.32422,166.41406 c 3.53906,8.85157 10.62109,-0.5039 10.62109,-0.5039 l 7.08203,-164.14063 c 3.53907,-16.94531 12.89844,-0.5039 12.89844,-0.5039 l 4.55078,165.90625 c 4.04688,11.63671 10.6211,0 10.6211,0 0,0 7.58984,-168.94141 7.08203,-178.80469 -0.50391,-9.86719 7.58984,-35.15625 -19.98047,-58.92969 -27.56641,-24.02734 -25.03516,-41.98437 -25.03516,-41.98437 L 175.48437,14.085938 c -31.61328,-31.613282 -59.68749,0 -59.68749,0 l 8.59765,386.449222"
         id="path855" />
      <path
         style="fill:#63ae23;fill-opacity:1;fill-rule:nonzero;stroke:none"
         d="M 254.19531,657.54687 78.765625,482.12109 80.394531,534.44531 228.84766,682.89453 Z m 0,0"
         id="path857" />
      <path
         style="fill:#63ae23;fill-opacity:1;fill-rule:nonzero;stroke:none"
         d="m 0.652344,274.14844 v 23.60547 l -0.003906,0.008 0.003906,0.004 v 24.4375 l 11.40625,-11.40625 195.792966,223.64844 1.73828,-52.43359 -172.128902,-196.6211 11.242187,-11.24218 z m 0,0"
         id="path859" />
      <path
         style="fill:#513823;fill-opacity:1;fill-rule:nonzero;stroke:none"
         d="m 1348.3633,559.42578 h 25.6758 v 26.99609 h -25.6758 z m 0,0"
         id="path861" />
      <path
         style="fill:#513823;fill-opacity:1;fill-rule:nonzero;stroke:none"
         d="m 1443.1914,506.09766 c -4.1133,-5.26563 -13.0039,-13.4961 -25.5117,-13.4961 -22.7149,0 -33.7422,17.77735 -33.7422,48.0625 0,30.28516 11.0273,48.0586 33.7422,48.0586 12.5078,0 21.3984,-8.22657 25.5117,-13.4961 v 11.19531 h 45.0977 v -26.99609 h -7.2422 V 458.36719 h -47.5664 v 26.99218 h 9.7109 z m -19.0937,26.33593 c 0,-7.40625 3.2929,-10.53515 9.5468,-10.53515 6.2539,0 9.5469,3.1289 9.5469,10.53515 v 16.45703 c 0,7.41016 -3.293,10.53516 -9.5469,10.53516 -6.2539,0 -9.5468,-3.125 -9.5468,-10.53516 z m 0,0"
         id="path863" />
      <path
         style="fill:#513823;fill-opacity:1;fill-rule:nonzero;stroke:none"
         d="m 1541.0039,492.60156 c -30.4531,0 -49.7109,15.96485 -49.7109,48.0625 0,32.09375 19.2578,48.0586 49.7109,48.0586 26.168,0 40.9805,-8.22657 40.9805,-8.22657 v -26.33593 c -7.8985,2.63281 -20.4063,5.26562 -34.8906,5.26562 -11.5235,0 -15.6368,-3.94922 -15.6368,-11.85156 v -0.98438 h 53.3282 v -11.85156 c 0,-20.73828 -10.043,-42.13672 -43.7813,-42.13672 z m 0,29.29688 c 6.2539,0 9.543,3.1289 9.543,10.53515 v 0.98828 h -19.0899 v -0.98828 c 0,-7.40625 3.2891,-10.53515 9.5469,-10.53515 z m 0,0"
         id="path865" />
    </g>
    <clipPath
       clipPathUnits="userSpaceOnUse"
       id="clipPath919">
      <path
         d="M 0,0 H 1783.431 V 875.07117 H 0 Z"
         id="path917" />
    </clipPath>
  </defs>
  <metadata
     id="metadata5">
    <rdf:RDF>
      <cc:Work
         rdf:about="">
        <dc:format>image/svg+xml</dc:format>
        <dc:type
           rdf:resource="http://purl.org/dc/dcmitype/StillImage" />
        <dc:title></dc:title>
      </cc:Work>
    </rdf:RDF>
  </metadata>
  <g
     transform="translate(110.84637,-127.41433)"
     id="layer1">
    <path
       d="m -5.9860581,301.98119 h 2.6761722 c 0,-9.72608 4.9967443,-13.74034 13.5611299,-13.74034 6.424436,0 9.369425,1.5173 9.369425,1.5173 v 9.10061 c 0,0 -2.855383,-0.26882 -5.710766,-0.26882 -3.033184,0 -4.0156698,0.89288 -4.0156698,3.39125 h 4.5504808 v 9.54582 H 9.8942332 v 13.20553 h 4.5504808 v 9.54581 H -5.9860581 v -9.54581 h 2.5865666 v -13.20553 h -2.5865666 z"
       style="fill:#533a24;fill-opacity:1;fill-rule:nonzero;stroke:none;stroke-width:0.35277778"
       id="path921" />
    <path
       d="m 32.378524,335.08162 c -10.706099,0 -17.577152,-5.6208 -17.577152,-16.95097 0,-11.33192 6.781447,-16.95273 17.577152,-16.95273 10.707158,0 17.5768,5.62081 17.5768,16.95273 0,11.33017 -6.781447,16.95097 -17.5768,16.95097 z m 3.391253,-14.00774 v -5.79861 c 0,-2.58798 -1.160286,-3.74826 -3.391253,-3.74826 -2.229908,0 -3.390194,1.07068 -3.390194,3.74826 v 5.79861 c 0,2.58798 1.160286,3.74685 3.390194,3.74685 2.230967,-0.0882 3.391253,-1.15887 3.391253,-3.74685 z"
       style="fill:#533a24;fill-opacity:1;fill-rule:nonzero;stroke:none;stroke-width:0.35277778"
       id="path923" />
    <path
       d="m 68.423593,335.08162 c -10.705747,0 -17.5768,-5.6208 -17.5768,-16.95097 0,-11.33192 6.781448,-16.95273 17.5768,-16.95273 10.707511,0 17.577152,5.62081 17.577152,16.95273 0,11.33017 -6.869641,16.95097 -17.577152,16.95097 z m 3.391606,-14.00774 v -5.79861 c 0,-2.58798 -1.160287,-3.74826 -3.391606,-3.74826 -2.229555,0 -3.389842,1.07068 -3.389842,3.74826 v 5.79861 c 0,2.58798 1.160287,3.74685 3.389842,3.74685 2.231319,-0.0882 3.391606,-1.15887 3.391606,-3.74685 z"
       style="fill:#533a24;fill-opacity:1;fill-rule:nonzero;stroke:none;stroke-width:0.35277778"
       id="path925" />
    <path
       d="m 108.03807,298.58853 h -3.38984 v -9.54582 h 16.77352 v 35.68877 h 2.58657 v 9.54546 h -15.88065 v -3.92465 c -1.42769,1.87289 -4.55012,4.72792 -9.011,4.72792 -8.030986,0 -11.867444,-6.24522 -11.867444,-16.95238 0,-10.7061 3.926064,-16.95132 11.867444,-16.95132 4.37127,0 7.58331,2.94498 9.011,4.72792 v -7.3159 z m -6.7811,22.39468 c 0,2.58763 1.16029,3.74827 3.39126,3.74827 2.22955,0 3.38984,-1.07104 3.38984,-3.74827 v -5.79896 c 0,-2.58797 -1.16029,-3.74685 -3.38984,-3.74685 -2.23097,0 -3.39126,1.07068 -3.39126,3.74685 z"
       style="fill:#533a24;fill-opacity:1;fill-rule:nonzero;stroke:none;stroke-width:0.35277778"
       id="path927" />
    <path
       d="m 126.50669,325.08955 c 0,0 7.22771,1.07068 11.59898,1.07068 3.39125,0 4.19347,-0.62407 4.19347,-1.51695 0,-1.07103 -0.80222,-1.42769 -4.46088,-1.87289 -8.02992,-1.07068 -12.93706,-4.55048 -12.93706,-11.06417 0,-6.06637 4.28307,-10.6165 14.81137,-10.6165 8.9214,0 13.47153,1.78435 13.47153,1.78435 v 7.85072 c 0,0 -6.24523,-0.80328 -11.06276,-0.80328 -3.12279,0 -4.46229,0.44662 -4.46229,1.4277 0,0.89288 0.80363,1.33949 4.37268,1.6965 8.9214,0.89147 13.11593,4.19312 13.11593,10.88355 0,6.87105 -4.55013,11.15378 -14.63322,11.15378 -8.8318,0 -14.00775,-1.78435 -14.00775,-1.78435 z"
       style="fill:#64ae24;fill-opacity:1;fill-rule:nonzero;stroke:none;stroke-width:0.35277778"
       id="path929" />
    <path
       d="m 176.64946,324.73254 h 2.58798 v -9.54688 c 0,-2.58797 -1.16029,-3.74685 -3.3916,-3.74685 -2.22956,0 -3.38985,1.07068 -3.38985,3.74685 v 9.54688 h 2.58798 v 9.54581 h -18.47003 v -9.54581 h 2.58798 v -26.1426 h -2.58798 v -9.54581 h 15.88205 v 16.86171 c 1.87396,-1.87254 4.55013,-4.72792 9.81428,-4.72792 6.33483,0 10.2609,4.37127 10.2609,14.00774 v 9.54688 h 2.58656 v 9.54581 h -18.46827 z"
       style="fill:#64ae24;fill-opacity:1;fill-rule:nonzero;stroke:none;stroke-width:0.35277778"
       id="path931" />
    <path
       d="m 217.06721,330.3537 c -1.42769,1.87289 -4.55013,4.72792 -10.17129,4.72792 -6.60223,0 -10.70751,-3.21204 -10.70751,-9.1006 0,-7.2263 6.42444,-11.15237 20.8788,-11.15237 0,-2.23096 -0.98248,-3.38984 -5.35375,-3.38984 -4.55013,0 -9.63648,0.80187 -13.47294,1.6951 v -9.99384 c 0,0 6.8707,-2.05176 16.06091,-2.05176 12.40085,0 16.05986,4.72934 16.05986,14.00775 v 9.63648 h 2.58657 v 9.54581 h -15.88065 z m 0,-9.63648 c -4.10527,0 -6.69184,0.35666 -6.69184,2.23097 0,1.33808 0.98108,1.87254 3.21239,1.87254 2.22956,0 3.56765,-1.24848 3.56765,-3.74685 v -0.35666 z"
       style="fill:#64ae24;fill-opacity:1;fill-rule:nonzero;stroke:none;stroke-width:0.35277778"
       id="path933" />
    <path
       d="m 234.55441,301.98119 h 15.88064 v 3.83646 l 0.62548,0.1778 c 1.06962,-2.22956 3.39019,-4.81753 7.40445,-4.81753 3.03424,0 4.72934,0.80327 4.72934,0.80327 v 10.08169 c 0,0 -2.58798,-0.53587 -5.44336,-0.53587 -5.08494,0 -7.31591,2.05316 -7.31591,7.58472 v 5.62081 h 5.26415 v 9.54581 h -21.2344 v -9.54581 h 2.58798 v -13.20553 h -2.58798 v -9.54582 z"
       style="fill:#64ae24;fill-opacity:1;fill-rule:nonzero;stroke:none;stroke-width:0.35277778"
       id="path935" />
    <path
       d="m 280.77112,324.73254 h 2.58656 v 9.54581 h -18.46827 v -9.54581 h 2.58763 v -13.20553 h -2.58763 v -9.54582 h 15.88171 z m -12.58006,-35.60022 h 10.7061 v 9.72644 h -10.7061 z"
       style="fill:#64ae24;fill-opacity:1;fill-rule:nonzero;stroke:none;stroke-width:0.35277778"
       id="path937" />
    <path
       d="m 304.86055,324.73254 h 2.58656 v -9.54688 c 0,-2.58797 -1.15887,-3.74685 -3.38984,-3.74685 -2.22955,0 -3.38984,1.07068 -3.38984,3.74685 v 9.54688 h 2.58657 v 9.54581 h -18.46863 v -9.54581 h 2.58798 v -13.20553 h -2.58798 v -9.54582 h 15.88206 v 3.92465 c 1.87254,-1.87254 4.55013,-4.72792 9.81428,-4.72792 6.33483,0 10.25948,4.37127 10.25948,14.00774 v 9.54688 h 2.58798 v 9.54581 h -18.46862 z"
       style="fill:#64ae24;fill-opacity:1;fill-rule:nonzero;stroke:none;stroke-width:0.35277778"
       id="path939" />
    <path
       d="m 344.83203,301.98119 h 15.88065 v 9.54582 h -2.49838 v 20.43218 c 0,11.41977 -5.88856,16.0595 -16.77352,16.0595 -8.38694,0 -13.91814,-1.87395 -13.91814,-1.87395 v -9.54582 c 3.21204,0.62442 7.2263,1.07068 11.06417,1.07068 4.19347,0 6.24522,-0.89288 6.24522,-4.81894 v -2.49696 c -1.42769,1.87289 -4.55013,4.72792 -9.01241,4.72792 -8.02993,0 -11.86639,-6.24522 -11.86639,-16.95097 0,-10.70751 3.92607,-16.95273 11.86639,-16.95273 4.37268,0 7.58472,2.94499 9.01241,4.72792 z m -6.69184,19.09269 c 0,2.58798 1.15887,3.74685 3.39019,3.74685 2.23097,0 3.38985,-1.07068 3.38985,-3.74685 v -5.79861 c 0,-2.58798 -1.15888,-3.74826 -3.38985,-3.74826 -2.23132,0 -3.39019,1.07068 -3.39019,3.74826 z"
       style="fill:#64ae24;fill-opacity:1;fill-rule:nonzero;stroke:none;stroke-width:0.35277778"
       id="path941" />
    <path
       d="m -26.531483,224.73521 3.967339,3.96875 -60.724343,68.77932 0.575733,18.45874 69.107402,-78.27927 4.0266051,4.02519 v -16.95273 z"
       style="fill:#64ae24;fill-opacity:1;fill-rule:nonzero;stroke:none;stroke-width:0.35277778"
       id="path943" />
    <path
       d="m -99.062945,359.36967 61.926257,-61.92626 -0.613128,18.49861 -52.371271,52.36986 z"
       style="fill:#64ae24;fill-opacity:1;fill-rule:nonzero;stroke:none;stroke-width:0.35277778"
       id="path945" />
    <path
       d="m -67.19159,267.80867 c 0,0 0.803275,6.42443 -8.832144,14.81102 -9.726083,8.47654 -6.781095,17.30834 -7.0485,20.78919 -0.179211,3.47945 2.498372,63.07843 2.498372,63.07843 0,0 2.229556,4.10528 3.746853,0 l 1.605491,-58.52795 c 0,0 3.301647,-5.80037 4.550128,0.17745 l 2.498372,57.9053 c 0,0 2.498372,3.30059 3.746853,0.1778 l 2.231319,-58.70716 c 0,0 0.624064,-2.23097 1.873956,-2.23097 h 0.1778 c 1.249891,0 1.874308,2.23097 1.874308,2.23097 l 2.230967,58.70716 c 1.24848,3.12279 3.746852,-0.1778 3.746852,-0.1778 l 2.498373,-57.9053 c 1.24848,-5.97782 4.550127,-0.17745 4.550127,-0.17745 l 1.605492,58.52795 c 1.427691,4.10528 3.746853,0 3.746853,0 0,0 2.677583,-59.59898 2.498372,-63.07843 -0.1778,-3.48085 2.677583,-12.40225 -7.0485,-20.78919 -9.725025,-8.47619 -8.831792,-14.81102 -8.831792,-14.81102 l 4.103511,-135.43774 c -11.152363,-11.15236 -21.056246,0 -21.056246,0 l 3.033183,136.33062"
       style="fill:#533a24;fill-opacity:1;fill-rule:nonzero;stroke:none;stroke-width:0.35277778"
       id="path947" />
    <path
       d="m -21.401036,359.36967 -61.887451,-61.88639 0.574675,18.45874 52.370918,52.36986 z"
       style="fill:#64ae24;fill-opacity:1;fill-rule:nonzero;stroke:none;stroke-width:0.35277778"
       id="path949" />
    <path
       d="m -110.84537,224.11538 v 8.32732 l -10e-4,0.003 10e-4,0.001 v 8.62083 l 4.02414,-4.02378 69.071414,78.89804 0.613128,-18.4972 -60.723285,-69.36352 3.965928,-3.96592 z"
       style="fill:#64ae24;fill-opacity:1;fill-rule:nonzero;stroke:none;stroke-width:0.35277778"
       id="path951" />
    <path
       d="m 99.205011,359.5155 h 1.581249 v 5.18649 H 92.152639 L 87.408895,354.89826 85.954146,356.1 v 3.4155 h 1.517999 v 5.18649 H 75.517909 v -5.18649 h 1.581248 v -14.23123 h -1.581248 v -5.1865 h 11.954236 v 5.1865 h -1.517999 v 4.17449 l 4.901869,-4.17449 h -1.992372 v -5.1865 h 11.764487 v 5.1865 h -1.581249 l -5.281369,4.36424 z"
       style="font-style:normal;font-variant:normal;font-weight:normal;font-stretch:normal;font-size:29.71305275px;line-height:1.25;font-family:'Alfa Slab One';-inkscape-font-specification:'Alfa Slab One';letter-spacing:0px;word-spacing:0px;fill:#333333;fill-opacity:1;stroke:none;stroke-width:0.37060502"
       id="path1129" />
    <path
       d="m 120.29882,359.5155 v 5.18649 h -8.34898 v -2.15049 q -0.69575,1.01199 -1.96075,1.80262 -1.23337,0.79063 -3.03599,0.79063 -2.37188,0 -3.73175,-1.265 -1.35988,-1.26501 -1.35988,-3.57363 0,-5.97712 10.15161,-6.13524 -0.0948,-1.07525 -0.82225,-1.45474 -0.72737,-0.41113 -2.46674,-0.41113 -1.42312,0 -3.06762,0.31625 -1.61288,0.28463 -2.97275,0.79062 v -5.81899 q 1.67613,-0.41113 3.63687,-0.66412 1.96075,-0.25301 3.82662,-0.25301 4.71212,0 6.73612,1.70775 2.024,1.70775 2.024,5.28137 v 5.85062 z m -8.34898,-2.21375 q -1.42313,0 -2.21376,0.37951 -0.75899,0.37949 -0.75899,1.26499 0,0.53763 0.31625,0.8855 0.34788,0.31625 0.94875,0.31625 0.82224,0 1.265,-0.69575 0.44275,-0.69575 0.44275,-1.96074 z"
       style="font-style:normal;font-variant:normal;font-weight:normal;font-stretch:normal;font-size:29.71305275px;line-height:1.25;font-family:'Alfa Slab One';-inkscape-font-specification:'Alfa Slab One';letter-spacing:0px;word-spacing:0px;fill:#333333;fill-opacity:1;stroke:none;stroke-width:0.37060502"
       id="path1131" />
    <path
       d="m 122.82881,345.37914 v -5.28137 h 6.45149 v 5.28137 z m -1.51799,19.32285 v -5.18649 h 1.3915 v -7.21049 h -1.3915 v -5.18649 h 8.66524 v 12.39698 h 1.3915 v 5.18649 z"
       style="font-style:normal;font-variant:normal;font-weight:normal;font-stretch:normal;font-size:29.71305275px;line-height:1.25;font-family:'Alfa Slab One';-inkscape-font-specification:'Alfa Slab One';letter-spacing:0px;word-spacing:0px;fill:#333333;fill-opacity:1;stroke:none;stroke-width:0.37060502"
       id="path1133" />
    <path
       d="m 139.93789,365.14475 q -3.98475,0 -7.68488,-1.265 v -4.6805 h 5.12325 v 0.31625 q 0,1.518 1.92912,1.518 1.70775,0 1.70775,-1.17012 0,-0.6325 -0.506,-0.94875 -0.47438,-0.31625 -1.70774,-0.53763 l -1.58126,-0.28462 q -4.96512,-0.8855 -4.96512,-5.62925 0,-2.75136 2.08725,-4.26937 2.08725,-1.518 5.62925,-1.518 3.95312,0 6.67286,1.32825 v 4.39588 h -4.80699 v -0.31625 q 0,-0.6325 -0.44275,-0.94876 -0.41112,-0.34787 -1.23337,-0.34787 -1.58126,0 -1.58126,1.012 0,0.53762 0.44276,0.82225 0.44275,0.28463 1.61287,0.53762 l 1.80263,0.34787 q 2.81462,0.53764 4.01636,1.99238 1.20175,1.45475 1.20175,3.73175 0,2.87786 -2.024,4.39587 -1.99237,1.518 -5.69248,1.518 z"
       style="font-style:normal;font-variant:normal;font-weight:normal;font-stretch:normal;font-size:29.71305275px;line-height:1.25;font-family:'Alfa Slab One';-inkscape-font-specification:'Alfa Slab One';letter-spacing:0px;word-spacing:0px;fill:#333333;fill-opacity:1;stroke:none;stroke-width:0.37060502"
       id="path1135" />
    <path
       d="m 158.09058,365.14475 q -4.49074,0 -7.02073,-2.34025 -2.53001,-2.37188 -2.53001,-6.89424 0,-4.52237 2.53001,-6.86263 2.52999,-2.37187 7.02073,-2.37187 4.45912,0 6.41987,2.34025 1.99238,2.30862 1.99238,5.75575 v 2.277 h -10.24649 v 0.18974 q 0,1.17013 0.69574,1.73937 0.69575,0.53763 2.30863,0.53763 1.92912,0 3.66849,-0.28462 1.73938,-0.28463 3.036,-0.72737 v 5.05998 q -1.10687,0.60088 -3.25737,1.10688 -2.11887,0.47438 -4.61725,0.47438 z m 1.83425,-11.57474 v -0.37951 q 0,-1.07524 -0.47437,-1.54962 -0.44275,-0.47437 -1.35988,-0.47437 -0.91711,0 -1.39149,0.506 -0.44275,0.47437 -0.44275,1.51799 v 0.37951 z"
       style="font-style:normal;font-variant:normal;font-weight:normal;font-stretch:normal;font-size:29.71305275px;line-height:1.25;font-family:'Alfa Slab One';-inkscape-font-specification:'Alfa Slab One';letter-spacing:0px;word-spacing:0px;fill:#333333;fill-opacity:1;stroke:none;stroke-width:0.37060502"
       id="path1137" />
    <path
       d="m 180.95542,346.67576 q 0.6325,0 1.20175,0.12651 0.56925,0.1265 0.94875,0.31625 v 6.04036 q -1.29663,-0.53762 -2.783,-0.53762 -1.99237,0 -3.06762,1.04362 -1.07525,1.04363 -1.07525,3.09925 v 2.75137 h 2.84626 v 5.18649 h -11.5115 v -5.18649 h 1.3915 v -7.21049 h -1.3915 v -5.18649 h 8.66524 v 2.30862 q 0.88551,-1.32825 2.02401,-2.024 1.13849,-0.72738 2.75136,-0.72738 z"
       style="font-style:normal;font-variant:normal;font-weight:normal;font-stretch:normal;font-size:29.71305275px;line-height:1.25;font-family:'Alfa Slab One';-inkscape-font-specification:'Alfa Slab One';letter-spacing:0px;word-spacing:0px;fill:#333333;fill-opacity:1;stroke:none;stroke-width:0.37060502"
       id="path1139" />
    <path
       d="m 191.80274,365.14475 q -3.98475,0 -7.68486,-1.265 v -4.6805 h 5.12324 v 0.31625 q 0,1.518 1.92913,1.518 1.70774,0 1.70774,-1.17012 0,-0.6325 -0.506,-0.94875 -0.47437,-0.31625 -1.70774,-0.53763 l -1.58126,-0.28462 q -4.96511,-0.8855 -4.96511,-5.62925 0,-2.75136 2.08725,-4.26937 2.08724,-1.518 5.62924,-1.518 3.95311,0 6.67286,1.32825 v 4.39588 h -4.80699 v -0.31625 q 0,-0.6325 -0.44275,-0.94876 -0.41112,-0.34787 -1.23337,-0.34787 -1.58125,0 -1.58125,1.012 0,0.53762 0.44275,0.82225 0.44275,0.28463 1.61287,0.53762 l 1.80262,0.34787 q 2.81462,0.53764 4.01638,1.99238 1.20174,1.45475 1.20174,3.73175 0,2.87786 -2.02399,4.39587 -1.99238,1.518 -5.6925,1.518 z"
       style="font-style:normal;font-variant:normal;font-weight:normal;font-stretch:normal;font-size:29.71305275px;line-height:1.25;font-family:'Alfa Slab One';-inkscape-font-specification:'Alfa Slab One';letter-spacing:0px;word-spacing:0px;fill:#333333;fill-opacity:1;stroke:none;stroke-width:0.37060502"
       id="path1141" />
    <path
       d="m 200.53121,364.73362 v -5.21812 h 1.39149 v -14.23123 h -1.39149 v -5.1865 h 8.66523 v 19.41773 h 1.39151 v 5.21812 z"
       style="font-style:normal;font-variant:normal;font-weight:normal;font-stretch:normal;font-size:29.71305275px;line-height:1.25;font-family:'Alfa Slab One';-inkscape-font-specification:'Alfa Slab One';letter-spacing:0px;word-spacing:0px;fill:#333333;fill-opacity:1;stroke:none;stroke-width:0.37060502"
       id="path1143" />
    <path
       d="m 230.03725,359.5155 v 5.18649 h -8.349 v -2.15049 q -0.69575,1.01199 -1.96074,1.80262 -1.23338,0.79063 -3.036,0.79063 -2.37187,0 -3.73174,-1.265 -1.35987,-1.26501 -1.35987,-3.57363 0,-5.97712 10.15161,-6.13524 -0.0948,-1.07525 -0.82225,-1.45474 -0.72738,-0.41113 -2.46675,-0.41113 -1.42313,0 -3.06763,0.31625 -1.61286,0.28463 -2.97274,0.79062 v -5.81899 q 1.67613,-0.41113 3.63687,-0.66412 1.96075,-0.25301 3.82663,-0.25301 4.71211,0 6.73611,1.70775 2.02399,1.70775 2.02399,5.28137 v 5.85062 z m -8.349,-2.21375 q -1.42312,0 -2.21374,0.37951 -0.75901,0.37949 -0.75901,1.26499 0,0.53763 0.31625,0.8855 0.34789,0.31625 0.94876,0.31625 0.82225,0 1.265,-0.69575 0.44274,-0.69575 0.44274,-1.96074 z"
       style="font-style:normal;font-variant:normal;font-weight:normal;font-stretch:normal;font-size:29.71305275px;line-height:1.25;font-family:'Alfa Slab One';-inkscape-font-specification:'Alfa Slab One';letter-spacing:0px;word-spacing:0px;fill:#333333;fill-opacity:1;stroke:none;stroke-width:0.37060502"
       id="path1145" />
    <path
       d="m 251.85846,359.5155 v 5.18649 h -8.66525 v -2.46674 q -2.277,2.9095 -5.69249,2.9095 -2.62487,0 -3.95312,-1.6445 -1.29662,-1.6445 -1.29662,-4.52238 v -6.67286 h -1.3915 v -5.18649 h 8.66524 v 10.37299 q 0,1.04362 0.44275,1.54962 0.47438,0.47437 1.3915,0.47437 0.91712,0 1.35987,-0.47437 0.47437,-0.506 0.47437,-1.54962 v -5.1865 h -1.70774 v -5.18649 h 8.98149 v 12.39698 z"
       style="font-style:normal;font-variant:normal;font-weight:normal;font-stretch:normal;font-size:29.71305275px;line-height:1.25;font-family:'Alfa Slab One';-inkscape-font-specification:'Alfa Slab One';letter-spacing:0px;word-spacing:0px;fill:#333333;fill-opacity:1;stroke:none;stroke-width:0.37060502"
       id="path1147" />
    <path
       d="m 260.5553,365.14475 q -3.35225,0 -5.06,-1.61288 -1.67612,-1.6445 -1.67612,-5.50274 v -5.72412 h -1.3915 v -5.18649 q 1.20175,0 1.80263,-0.60088 0.60087,-0.6325 0.60087,-1.70775 v -1.42312 h 6.70449 v 3.73175 h 4.26937 v 5.18649 h -4.26937 v 5.1865 q 0,1.04362 0.44276,1.54962 0.47436,0.47437 1.39149,0.47437 1.20175,0 2.62487,-0.28462 v 4.96512 q -0.8855,0.34787 -2.4035,0.6325 -1.48637,0.31625 -3.03599,0.31625 z"
       style="font-style:normal;font-variant:normal;font-weight:normal;font-stretch:normal;font-size:29.71305275px;line-height:1.25;font-family:'Alfa Slab One';-inkscape-font-specification:'Alfa Slab One';letter-spacing:0px;word-spacing:0px;fill:#333333;fill-opacity:1;stroke:none;stroke-width:0.37060502"
       id="path1149" />
    <path
       d="m 276.43096,365.14475 q -4.49074,0 -7.02074,-2.34025 -2.52999,-2.37188 -2.52999,-6.89424 0,-4.52237 2.52999,-6.86263 2.53,-2.37187 7.02074,-2.37187 4.45912,0 6.41987,2.34025 1.99237,2.30862 1.99237,5.75575 v 2.277 h -10.24649 v 0.18974 q 0,1.17013 0.69576,1.73937 0.69575,0.53763 2.30862,0.53763 1.92912,0 3.6685,-0.28462 1.73937,-0.28463 3.03599,-0.72737 v 5.05998 q -1.10688,0.60088 -3.25737,1.10688 -2.11887,0.47438 -4.61725,0.47438 z m 1.83426,-11.57474 v -0.37951 q 0,-1.07524 -0.47438,-1.54962 -0.44275,-0.47437 -1.35988,-0.47437 -0.91712,0 -1.39149,0.506 -0.44276,0.47437 -0.44276,1.51799 v 0.37951 z"
       style="font-style:normal;font-variant:normal;font-weight:normal;font-stretch:normal;font-size:29.71305275px;line-height:1.25;font-family:'Alfa Slab One';-inkscape-font-specification:'Alfa Slab One';letter-spacing:0px;word-spacing:0px;fill:#333333;fill-opacity:1;stroke:none;stroke-width:0.37060502"
       id="path1151" />
    <path
       d="m 299.29582,346.67576 q 0.63249,0 1.20174,0.12651 0.56925,0.1265 0.94875,0.31625 v 6.04036 q -1.29662,-0.53762 -2.78299,-0.53762 -1.99238,0 -3.06763,1.04362 -1.07524,1.04363 -1.07524,3.09925 v 2.75137 h 2.84624 v 5.18649 H 285.8552 v -5.18649 h 1.3915 v -7.21049 h -1.3915 v -5.18649 h 8.66525 v 2.30862 q 0.88549,-1.32825 2.02399,-2.024 1.1385,-0.72738 2.75138,-0.72738 z"
       style="font-style:normal;font-variant:normal;font-weight:normal;font-stretch:normal;font-size:29.71305275px;line-height:1.25;font-family:'Alfa Slab One';-inkscape-font-specification:'Alfa Slab One';letter-spacing:0px;word-spacing:0px;fill:#333333;fill-opacity:1;stroke:none;stroke-width:0.37060502"
       id="path1153" />
    <path
       d="m 323.45724,359.5155 v 5.18649 h -9.99349 v -5.18649 h 1.32825 v -5.1865 q 0,-1.04362 -0.44275,-1.51799 -0.44274,-0.506 -1.32825,-0.506 -1.89749,0 -1.89749,2.02399 v 5.1865 h 1.32825 v 5.18649 h -9.9935 v -5.18649 h 1.3915 v -7.21049 h -1.3915 v -5.18649 h 8.66525 v 2.46675 q 2.277,-2.90951 5.69249,-2.90951 2.62487,0 3.9215,1.6445 1.32824,1.6445 1.32824,4.52237 v 6.67287 z"
       style="font-style:normal;font-variant:normal;font-weight:normal;font-stretch:normal;font-size:29.71305275px;line-height:1.25;font-family:'Alfa Slab One';-inkscape-font-specification:'Alfa Slab One';letter-spacing:0px;word-spacing:0px;fill:#333333;fill-opacity:1;stroke:none;stroke-width:0.37060502"
       id="path1155" />
  </g>
</svg>
